<svg xmlns="http://www.w3.org/2000/svg" viewBox="0 0 107.55 31.15"><title>Fichier 1</title><path d="M18.62,29.29V30H1.89V5H18.48v.7H2.59V16.62h15v.7H2.59v12Z" transform="translate(-1.89 -5)" fill="#fff"/><path d="M32.93,12l-6.58,8.68L33.56,30h-.87L25.9,21.21,19.14,30H18.3l7.18-9.31L18.93,12h.91l6.06,8.16L32.09,12Z" transform="translate(-1.89 -5)" fill="#fff"/><path d="M35,36.15V12h.7v5h.07a8.22,8.22,0,0,1,1-2.18,7.69,7.69,0,0,1,1.57-1.74A6.79,6.79,0,0,1,40.41,12a7.67,7.67,0,0,1,2.53-.41,7.27,7.27,0,0,1,3.21.7,7,7,0,0,1,2.41,2,8.93,8.93,0,0,1,1.52,3,13.25,13.25,0,0,1,0,7.35,9.6,9.6,0,0,1-1.47,3,6.83,6.83,0,0,1-5.69,2.8,7.32,7.32,0,0,1-4.72-1.49A7.15,7.15,0,0,1,35.73,25h-.07v11.2Zm11.15-7.22a6.74,6.74,0,0,0,2.15-2,9,9,0,0,0,1.25-2.8,12.93,12.93,0,0,0,.4-3.14,12.23,12.23,0,0,0-.44-3.3,8.93,8.93,0,0,0-1.29-2.77A6.42,6.42,0,0,0,46,13a6.53,6.53,0,0,0-3.07-.7,6.75,6.75,0,0,0-3.08.7,6.89,6.89,0,0,0-2.29,1.89,8.75,8.75,0,0,0-1.42,2.77A11.35,11.35,0,0,0,35.66,21c0,2.83.67,5,2,6.5a6.71,6.71,0,0,0,5.28,2.25A6.08,6.08,0,0,0,46.11,28.93Z" transform="translate(-1.89 -5)" fill="#fff"/><path d="M53.76,30V12h.7v4.45h.07a6.9,6.9,0,0,1,.77-1.91A5.58,5.58,0,0,1,56.7,13a7,7,0,0,1,2.08-1.05,9,9,0,0,1,2.82-.35v.7a6.69,6.69,0,0,0-3.2.51,6.18,6.18,0,0,0-2.23,1.68,7.11,7.11,0,0,0-1.29,2.47,9.92,9.92,0,0,0-.42,2.87V30Z" transform="translate(-1.89 -5)" fill="#fff"/><path d="M62.91,24.52a7.94,7.94,0,0,0,1.24,2.71,5.92,5.92,0,0,0,2.17,1.82,8.29,8.29,0,0,0,8-.82,6.74,6.74,0,0,0,2.32-4.47h.7a7.17,7.17,0,0,1-2.48,4.89,7.9,7.9,0,0,1-5.18,1.73,8.06,8.06,0,0,1-3.59-.67,6.26,6.26,0,0,1-2.43-2,8.7,8.7,0,0,1-1.4-3A14.39,14.39,0,0,1,61.77,21a11.27,11.27,0,0,1,.67-4,9.18,9.18,0,0,1,1.75-3,7.36,7.36,0,0,1,5.46-2.47,7.59,7.59,0,0,1,3.62.81,7.27,7.27,0,0,1,2.49,2.13,9.16,9.16,0,0,1,1.4,3.05,12.38,12.38,0,0,1,.36,3.57h-15A14.93,14.93,0,0,0,62.91,24.52Zm13.46-7.21A7.89,7.89,0,0,0,75,14.7a6.23,6.23,0,0,0-2.22-1.77,7,7,0,0,0-3.08-.65,6.83,6.83,0,0,0-2.75.56,6.63,6.63,0,0,0-2.24,1.63A8.53,8.53,0,0,0,63.17,17a11.09,11.09,0,0,0-.7,3.4H76.82A10.72,10.72,0,0,0,76.37,17.31Z" transform="translate(-1.89 -5)" fill="#fff"/><path d="M91.63,15a4.08,4.08,0,0,0-1.19-1.55,5,5,0,0,0-1.84-.9,9.61,9.61,0,0,0-2.36-.28,7.16,7.16,0,0,0-3,.51A4.55,4.55,0,0,0,81.65,14,3,3,0,0,0,81,15.22a5.23,5.23,0,0,0-.14.88,3.36,3.36,0,0,0,.54,2,3.51,3.51,0,0,0,1.45,1.1,14.49,14.49,0,0,0,2,.66l2.57.67,2.09.58A7.22,7.22,0,0,1,91.4,22a4.22,4.22,0,0,1,1.33,1.33,3.89,3.89,0,0,1,.51,2.1,4.31,4.31,0,0,1-.58,2.31,4.8,4.8,0,0,1-1.5,1.54,6.54,6.54,0,0,1-2.1.86,11,11,0,0,1-2.33.26,8.14,8.14,0,0,1-5.44-1.58c-1.23-1.05-1.84-2.7-1.84-5h.7a5.49,5.49,0,0,0,1.7,4.47,7.43,7.43,0,0,0,4.88,1.41,9.44,9.44,0,0,0,2-.22,6,6,0,0,0,1.87-.74A4.46,4.46,0,0,0,92,27.44a3.45,3.45,0,0,0,.54-2A3.2,3.2,0,0,0,92,23.55a4.3,4.3,0,0,0-1.4-1.2,8.41,8.41,0,0,0-2-.76L86.34,21c-.86-.21-1.62-.4-2.27-.59a13.54,13.54,0,0,1-1.75-.63,3.44,3.44,0,0,1-1.65-1.37,4.51,4.51,0,0,1-.52-2.34,4.23,4.23,0,0,1,.31-1.54,3.85,3.85,0,0,1,1.05-1.47A5.73,5.73,0,0,1,83.4,12a8.38,8.38,0,0,1,2.84-.42A7.55,7.55,0,0,1,91,13a5.2,5.2,0,0,1,1.75,4.37h-.7A5.68,5.68,0,0,0,91.63,15Z" transform="translate(-1.89 -5)" fill="#fff"/><path d="M107.83,15a4,4,0,0,0-1.19-1.55,4.9,4.9,0,0,0-1.83-.9,9.69,9.69,0,0,0-2.37-.28,7.08,7.08,0,0,0-3,.51A4.55,4.55,0,0,0,97.86,14a3.2,3.2,0,0,0-.67,1.27,5.23,5.23,0,0,0-.14.88,3.29,3.29,0,0,0,.55,2,3.44,3.44,0,0,0,1.45,1.1,14.08,14.08,0,0,0,2,.66l2.57.67,2.08.58a7.14,7.14,0,0,1,1.86.82,4.33,4.33,0,0,1,1.33,1.33,4,4,0,0,1,.5,2.1,4.4,4.4,0,0,1-.57,2.31,4.83,4.83,0,0,1-1.51,1.54,6.54,6.54,0,0,1-2.1.86,11,11,0,0,1-2.33.26,8.17,8.17,0,0,1-5.44-1.58c-1.22-1.05-1.84-2.7-1.84-5h.7a5.52,5.52,0,0,0,1.7,4.47,7.45,7.45,0,0,0,4.88,1.41,9.46,9.46,0,0,0,2-.22,6.15,6.15,0,0,0,1.87-.74,4.32,4.32,0,0,0,1.38-1.31,3.45,3.45,0,0,0,.54-2,3.2,3.2,0,0,0-.54-1.93,4.2,4.2,0,0,0-1.4-1.2,8.09,8.09,0,0,0-2-.76L102.55,21c-.86-.21-1.62-.4-2.28-.59a14.11,14.11,0,0,1-1.75-.63,3.46,3.46,0,0,1-1.64-1.37,4.5,4.5,0,0,1-.53-2.34,4.25,4.25,0,0,1,.32-1.54,3.85,3.85,0,0,1,1-1.47A5.73,5.73,0,0,1,99.61,12a8.32,8.32,0,0,1,2.83-.42A7.53,7.53,0,0,1,107.2,13,5.2,5.2,0,0,1,109,17.32h-.7A5.68,5.68,0,0,0,107.83,15Z" transform="translate(-1.89 -5)" fill="#fff"/></svg>